#!OML:ASF F:\VICON\USERDATA\INSTALL\rory3\rory3.ASF
:FULLY-SPECIFIED
:DEGREES
273
root -0.0109673 17.2169 20.5821 -0.002683 -4.03488 -1.47483
lowerback 3.99344 2.30057 2.60266
upperback 0.448197 3.21362 1.86473
thorax -1.74026 1.59063 0.284197
lowerneck -13.1041 -2.68288 -9.38598
upperneck 26.351 -2.74344 4.61484
head 10.8529 -1.6333 2.90964
rclavicle -4.40308e-014 -2.78299e-014
rhumerus -23.5597 -6.08541 -76.949
rradius 39.5706
rwrist 1.51449
rhand -15.4593 18.5315
rfingers 7.12502
rthumb 10.7217 -11.1749
lclavicle -4.40308e-014 -2.78299e-014
lhumerus -45.7817 14.6235 82.3106
lradius 20.7848
lwrist -19.0936
lhand -10.1181 29.2237
lfingers 7.12502
lthumb 15.87 58.5934
rfemur 10.6632 4.97166 24.793
rtibia 38.7799
rfoot -7.02416 -0.444912
rtoes -14.9733
lfemur -23.6781 -1.66866 -18.3987
ltibia 16.4111
lfoot 3.5511 -0.0752729
ltoes -9.86586
274
root -0.0054439 17.2204 20.8131 -0.284213 -4.1137 -1.29906
lowerback 4.1773 2.31626 2.24842
upperback 0.383926 3.22802 1.86311
thorax -1.92846 1.59848 0.468714
lowerneck -13.0931 -2.69953 -9.4618
upperneck 26.5202 -2.79538 4.76444
head 10.9212 -1.65019 2.97375
rclavicle -2.16178e-014 -1.15295e-014
rhumerus -24.1155 -6.56445 -76.9165
rradius 39.7038
rwrist 1.48245
rhand -15.3717 18.3849
rfingers 7.12502
rthumb 10.8063 -11.3171
lclavicle -2.16178e-014 -1.15295e-014
lhumerus -45.9578 15.1591 81.7398
lradius 20.4479
lwrist -19.8926
lhand -10.2347 28.872
lfingers 7.12502
lthumb 15.7576 58.2505
rfemur 9.98059 4.90491 24.4663
rtibia 40.9496
rfoot -3.96994 0.0687298
rtoes -12.684
lfemur -23.3672 -1.13683 -18.8364
ltibia 17.7255
lfoot 3.7945 -0.780446
ltoes -8.9849
275
root 0.0128051 17.2249 21.032 -0.413672 -3.9926 -1.07936
lowerback 4.26645 2.28174 2.08123
upperback 0.332592 3.17737 1.78551
thorax -2.0361 1.57325 0.479768
lowerneck -13.1906 -2.74158 -9.50985
upperneck 26.5986 -2.8587 4.84716
head 10.9772 -1.67449 3.00497
rclavicle 5.1684e-014 3.1408e-014
rhumerus -24.4479 -7.29751 -76.8576
rradius 39.6408
rwrist 1.48114
rhand -15.1068 18.5502
rfingers 7.12502
rthumb 11.0617 -11.1383
lclavicle 5.1684e-014 3.1408e-014
lhumerus -45.8462 16.024 80.9199
lradius 19.7785
lwrist -21.1642
lhand -10.3958 28.0693
lfingers 7.12502
lthumb 15.6025 57.46
rfemur 8.94995 4.57442 23.9435
rtibia 43.2268
rfoot -0.590241 0.63327
rtoes -12.4263
lfemur -23.2664 -0.668572 -19.4079
ltibia 19.0352
lfoot 3.76193 -1.06855
ltoes -8.012
276
root 0.0413869 17.2307 21.2458 -0.481347 -3.68244 -0.547856
lowerback 4.26254 2.2034 1.76557
upperback 0.301048 3.05433 1.57625
thorax -2.07189 1.51361 0.447565
lowerneck -13.4758 -2.77051 -9.57195
upperneck 26.8827 -2.90631 5.00692
head 11.1482 -1.68492 3.07285
rclavicle -1.86361e-016 -4.77083e-015
rhumerus -24.8023 -7.96635 -76.8173
rradius 39.638
rwrist 1.38877
rhand -15.2593 18.9315
rfingers 7.12502
rthumb 10.9146 -10.7648
lclavicle -1.86361e-016 -4.77083e-015
lhumerus -45.7307 16.2744 80.515
lradius 19.6025
lwrist -21.5075
lhand -10.3363 27.7176
lfingers 7.12502
lthumb 15.6597 57.1038
rfemur 7.7909 4.00493 22.9765
rtibia 45.5823
rfoot 2.41051 1.40826
rtoes -11.6822
lfemur -23.2833 -0.331007 -20.3901
ltibia 20.4298
lfoot 3.12871 -1.54275
ltoes -7.07051
277
root 0.0676922 17.2396 21.4666 -0.514276 -3.59772 -0.238526
lowerback 4.29083 2.21435 1.62746
upperback 0.196883 3.06286 1.44925
thorax -2.195 1.51751 0.390055
lowerneck -13.7417 -2.8143 -9.71049
upperneck 27.1922 -2.96744 5.19861
head 11.3298 -1.70579 3.16514
rclavicle 2.56929e-014 8.34896e-015
rhumerus -25.5443 -8.44582 -76.7322
rradius 40.0736
rwrist 1.04446
rhand -15.1163 18.6062
rfingers 7.12502
rthumb 11.0526 -11.0828
lclavicle 2.56929e-014 8.34896e-015
lhumerus -45.8213 15.789 80.7329
lradius 20.0028
lwrist -20.7724
lhand -9.79393 28.6669
lfingers 7.12502
lthumb 16.1821 58.0115
rfemur 6.57081 3.67945 22.2834
rtibia 48.0039
rfoot 5.2085 2.13393
rtoes -7.08912
lfemur -23.195 0.0930637 -21.0707
ltibia 21.7178
lfoot 2.37613 -2.12932
ltoes -5.08104
